<svg width="300" height="100" viewBox="0 0 1440 1024"  xmlns="http://www.w3.org/2000/svg">
<rect x="287.897" y="370.742" width="36.5972" height="127.101" rx="5" transform="rotate(0.404493 287.897 370.742)" fill="#AFAFAF"/>
<rect x="331.494" y="335" width="45" height="199" rx="5" fill="#E9E9E9"/>
<rect x="383.494" y="283" width="60" height="303" rx="5" fill="white"/>
<rect x="443.494" y="411" width="59" height="47" fill="white"/>
<rect width="36.5972" height="127.101" rx="5" transform="matrix(-0.999975 0.00705968 0.00705968 0.999975 1147.6 370.742)" fill="#AFAFAF"/>
<rect width="45" height="199" rx="5" transform="matrix(-1 0 0 1 1104 335)" fill="#E9E9E9"/>
<rect width="60" height="303" rx="5" transform="matrix(-1 0 0 1 1052 283)" fill="white"/>
<rect width="59" height="47" transform="matrix(-1 0 0 1 992 411)" fill="white"/>
<path d="M603 420.591V411.455H642.341V420.591H628.227V458H617.136V420.591H603ZM644.21 458V423.091H655.006V429.455H655.369C656.006 427.152 657.044 425.439 658.483 424.318C659.922 423.182 661.597 422.614 663.506 422.614C664.021 422.614 664.551 422.652 665.097 422.727C665.642 422.788 666.15 422.886 666.619 423.023V432.682C666.089 432.5 665.392 432.356 664.528 432.25C663.68 432.144 662.922 432.091 662.256 432.091C660.938 432.091 659.748 432.386 658.688 432.977C657.642 433.553 656.816 434.364 656.21 435.409C655.619 436.439 655.324 437.652 655.324 439.045V458H644.21ZM749.949 438.091V458H738.835V423.091H749.403V429.5H749.79C750.563 427.364 751.881 425.689 753.744 424.477C755.608 423.25 757.828 422.636 760.403 422.636C762.858 422.636 764.987 423.189 766.79 424.295C768.608 425.386 770.017 426.917 771.017 428.886C772.032 430.841 772.532 433.129 772.517 435.75V458H761.403V437.932C761.419 435.992 760.926 434.477 759.926 433.386C758.941 432.295 757.57 431.75 755.812 431.75C754.646 431.75 753.616 432.008 752.722 432.523C751.843 433.023 751.161 433.742 750.676 434.682C750.206 435.621 749.964 436.758 749.949 438.091ZM795.716 458.659C792.064 458.659 788.913 457.939 786.261 456.5C783.625 455.045 781.595 452.977 780.17 450.295C778.761 447.598 778.057 444.394 778.057 440.682C778.057 437.076 778.769 433.924 780.193 431.227C781.617 428.515 783.625 426.409 786.216 424.909C788.807 423.394 791.86 422.636 795.375 422.636C797.86 422.636 800.133 423.023 802.193 423.795C804.254 424.568 806.034 425.712 807.534 427.227C809.034 428.742 810.201 430.614 811.034 432.841C811.867 435.053 812.284 437.591 812.284 440.455V443.227H781.943V436.773H801.943C801.928 435.591 801.648 434.538 801.102 433.614C800.557 432.689 799.807 431.97 798.852 431.455C797.913 430.924 796.83 430.659 795.602 430.659C794.36 430.659 793.246 430.939 792.261 431.5C791.277 432.045 790.496 432.795 789.92 433.75C789.345 434.689 789.042 435.758 789.011 436.955V443.523C789.011 444.947 789.292 446.197 789.852 447.273C790.413 448.333 791.208 449.159 792.239 449.75C793.269 450.341 794.496 450.636 795.92 450.636C796.905 450.636 797.799 450.5 798.602 450.227C799.405 449.955 800.095 449.553 800.67 449.023C801.246 448.492 801.678 447.841 801.966 447.068L812.17 447.364C811.746 449.652 810.814 451.644 809.375 453.341C807.951 455.023 806.08 456.333 803.761 457.273C801.443 458.197 798.761 458.659 795.716 458.659ZM817.96 458V423.091H828.756V429.455H829.119C829.756 427.152 830.794 425.439 832.233 424.318C833.672 423.182 835.347 422.614 837.256 422.614C837.771 422.614 838.301 422.652 838.847 422.727C839.392 422.788 839.9 422.886 840.369 423.023V432.682C839.839 432.5 839.142 432.356 838.278 432.25C837.43 432.144 836.672 432.091 836.006 432.091C834.688 432.091 833.498 432.386 832.438 432.977C831.392 433.553 830.566 434.364 829.96 435.409C829.369 436.439 829.074 437.652 829.074 439.045V458H817.96ZM875.375 433.75L865.17 434.023C865.064 433.295 864.777 432.652 864.307 432.091C863.837 431.515 863.223 431.068 862.466 430.75C861.723 430.417 860.86 430.25 859.875 430.25C858.587 430.25 857.489 430.508 856.58 431.023C855.686 431.538 855.246 432.235 855.261 433.114C855.246 433.795 855.519 434.386 856.08 434.886C856.655 435.386 857.678 435.788 859.148 436.091L865.875 437.364C869.36 438.03 871.951 439.136 873.648 440.682C875.36 442.227 876.223 444.273 876.239 446.818C876.223 449.212 875.511 451.295 874.102 453.068C872.708 454.841 870.799 456.22 868.375 457.205C865.951 458.174 863.178 458.659 860.057 458.659C855.072 458.659 851.14 457.636 848.261 455.591C845.398 453.53 843.761 450.773 843.352 447.318L854.33 447.045C854.572 448.318 855.201 449.288 856.216 449.955C857.231 450.621 858.527 450.955 860.102 450.955C861.527 450.955 862.686 450.689 863.58 450.159C864.473 449.629 864.928 448.924 864.943 448.045C864.928 447.258 864.58 446.629 863.898 446.159C863.216 445.674 862.148 445.295 860.693 445.023L854.602 443.864C851.102 443.227 848.496 442.053 846.784 440.341C845.072 438.614 844.223 436.417 844.239 433.75C844.223 431.417 844.845 429.424 846.102 427.773C847.36 426.106 849.148 424.833 851.466 423.955C853.784 423.076 856.519 422.636 859.67 422.636C864.398 422.636 868.125 423.629 870.852 425.614C873.58 427.583 875.087 430.295 875.375 433.75Z" fill="white"/>
<path d="M681.216 458H669.125L684.83 411.455H699.807L715.511 458H703.42L692.489 423.182H692.125L681.216 458ZM679.602 439.682H704.875V448.227H679.602V439.682ZM731.773 411.455V458H720.523V411.455H731.773Z" fill="#FA7800"/>
<line x1="514.994" y1="487.5" x2="922.994" y2="486.498" stroke="#FFFBFB" stroke-width="5"/>
<line x1="513.994" y1="378.502" x2="921.994" y2="377.5" stroke="#FFFBFB" stroke-width="5"/>
</svg>
