<?xml version="1.0" encoding="UTF-8" standalone="no" ?>
<!DOCTYPE svg PUBLIC "-//W3C//DTD SVG 1.1//EN" "http://www.w3.org/Graphics/SVG/1.1/DTD/svg11.dtd">
<svg xmlns="http://www.w3.org/2000/svg" xmlns:xlink="http://www.w3.org/1999/xlink" version="1.1" width="1080" height="1080" viewBox="0 0 1080 1080" xml:space="preserve">
<desc>Created with Fabric.js 5.2.4</desc>
<defs>
</defs>
<g transform="matrix(1 0 0 1 540 540)" id="63b13449-597d-4632-9fd9-450aa7ad2491"  >
</g>
<g transform="matrix(1 0 0 1 540 540)" id="8b7bf704-63af-4f61-a6fe-fae3bd5b5dea"  >
<rect style="stroke: none; stroke-width: 1; stroke-dasharray: none; stroke-linecap: butt; stroke-dashoffset: 0; stroke-linejoin: miter; stroke-miterlimit: 4; fill: rgb(255,255,255); fill-rule: nonzero; opacity: 1; visibility: hidden;" vector-effect="non-scaling-stroke"  x="-540" y="-540" rx="0" ry="0" width="1080" height="1080" />
</g>
<g transform="matrix(1.33 0 0 1.33 455.89 480.35)"  >
<path style="stroke: none; stroke-width: 1; stroke-dasharray: none; stroke-linecap: butt; stroke-dashoffset: 0; stroke-linejoin: miter; stroke-miterlimit: 4; fill: rgb(0,0,0); fill-rule: nonzero; opacity: 1;" vector-effect="non-scaling-stroke"  transform=" translate(-322.6, -306.24)" d="M 552.21 349.74 C 547.7491 347.99 542.6709000000001 350.1775 540.835 354.6384 C 529.546 383.1614 513.796 409.5014 493.761 432.7754 L 457.09700000000004 475.5644 C 455.69860000000006 477.1386 454.9954 479.15029999999996 454.9954 481.2519 L 454.9954 542.5019 L 262.4954 542.5019 L 262.4954 490.0019 L 342.55740000000003 490.0019 C 355.94440000000003 490.0019 367.93240000000003 482.5644 373.88140000000004 470.66589999999997 L 384.11940000000004 450.1889 C 386.30690000000004 445.89979999999997 384.55690000000004 440.64979999999997 380.18190000000004 438.4619 C 375.8928 436.2744 370.6428 438.0244 368.45490000000007 442.3994 L 358.21690000000007 462.8764 C 355.24030000000005 468.8256 349.20520000000005 472.58729999999997 342.5529000000001 472.58729999999997 L 183.74290000000008 472.58729999999997 C 169.3049000000001 472.58729999999997 157.49290000000008 460.77529999999996 157.49290000000008 446.33729999999997 L 157.49290000000008 376.33729999999997 C 157.49290000000008 371.52479999999997 153.55540000000008 367.58729999999997 148.74290000000008 367.58729999999997 L 123.10590000000008 367.58729999999997 C 113.12930000000007 367.58729999999997 104.99290000000008 359.45059999999995 104.99290000000008 349.47429999999997 C 104.99290000000008 345.8884 106.04370000000007 342.3884 108.05540000000008 339.41229999999996 L 156.0044000000001 267.40029999999996 C 156.96534000000008 266.0019 157.4927000000001 264.2519 157.4927000000001 262.58779999999996 L 157.4927000000001 253.83779999999996 C 157.4927000000001 173.51379999999995 205.18070000000012 100.88779999999997 278.9427000000001 69.03779999999995 C 283.4036000000001 67.11199999999995 285.41930000000013 61.951899999999945 283.4935000000001 57.57679999999995 C 281.56770000000006 53.20169999999995 276.4076000000001 51.10019999999995 272.0325000000001 53.02599999999995 C 191.8845000000001 87.67399999999995 139.9925000000001 166.51599999999993 139.9925000000001 253.92599999999996 L 139.9925000000001 260.05099999999993 L 93.44150000000009 329.78899999999993 C 89.50400000000009 335.6522999999999 87.49230000000009 342.4769999999999 87.49230000000009 349.56199999999995 C 87.49230000000009 369.16399999999993 103.50430000000009 385.17499999999995 123.10530000000008 385.17499999999995 L 139.99230000000009 385.17499999999995 L 139.99230000000009 446.42499999999995 C 139.99230000000009 470.573 159.5943000000001 490.17499999999995 183.74230000000009 490.17499999999995 L 244.99230000000009 490.17499999999995 L 244.99230000000009 551.425 C 244.99230000000009 556.2375 248.92980000000009 560.175 253.74230000000009 560.175 L 463.7423000000001 560.175 C 468.5548000000001 560.175 472.4923000000001 556.2375 472.4923000000001 551.425 L 472.4923000000001 484.66299999999995 L 507.0543000000001 444.32699999999994 C 528.3163000000002 419.56499999999994 545.1163000000001 391.56499999999994 557.1053000000002 361.20199999999994 C 558.8553000000002 356.74109999999996 556.6678000000002 351.6628999999999 552.2069000000001 349.82699999999994 z" stroke-linecap="round" />
</g>
<g transform="matrix(1.33 0 0 1.33 493.07 376.12)"  >
<path style="stroke: none; stroke-width: 1; stroke-dasharray: none; stroke-linecap: butt; stroke-dashoffset: 0; stroke-linejoin: miter; stroke-miterlimit: 4; fill: rgb(0,0,0); fill-rule: nonzero; opacity: 1;" vector-effect="non-scaling-stroke"  transform=" translate(-350, -227.5)" d="M 385 201.25 L 315 201.25 C 310.1875 201.25 306.25 205.1875 306.25 210 C 306.25 214.8125 310.1875 218.75 315 218.75 L 376.25 218.75 L 376.25 245 C 376.25 249.8125 380.1875 253.75 385 253.75 C 389.8125 253.75 393.75 249.8125 393.75 245 L 393.75 210 C 393.75 205.1875 389.8125 201.25 385 201.25 z" stroke-linecap="round" />
</g>
<g transform="matrix(1.33 0 0 1.33 493.07 422.78)"  >
<path style="stroke: none; stroke-width: 1; stroke-dasharray: none; stroke-linecap: butt; stroke-dashoffset: 0; stroke-linejoin: miter; stroke-miterlimit: 4; fill: rgb(0,0,0); fill-rule: nonzero; opacity: 1;" vector-effect="non-scaling-stroke"  transform=" translate(-350, -262.5)" d="M 385 271.25 L 323.75 271.25 L 323.75 245 C 323.75 240.1875 319.8125 236.25 315 236.25 C 310.1875 236.25 306.25 240.1875 306.25 245 L 306.25 280 C 306.25 284.8125 310.1875 288.75 315 288.75 L 385 288.75 C 389.8125 288.75 393.75 284.8125 393.75 280 C 393.75 275.1875 389.8125 271.25 385 271.25 z" stroke-linecap="round" />
</g>
<g transform="matrix(1.33 0 0 1.33 493.18 399.51)"  >
<path style="stroke: none; stroke-width: 1; stroke-dasharray: none; stroke-linecap: butt; stroke-dashoffset: 0; stroke-linejoin: miter; stroke-miterlimit: 4; fill: rgb(0,0,0); fill-rule: nonzero; opacity: 1;" vector-effect="non-scaling-stroke"  transform=" translate(-350, -245)" d="M 358.75 245 C 358.75 249.832 354.832 253.75 350 253.75 C 345.168 253.75 341.25 249.832 341.25 245 C 341.25 240.168 345.168 236.25 350 236.25 C 354.832 236.25 358.75 240.168 358.75 245" stroke-linecap="round" />
</g>
<g transform="matrix(1.33 0 0 1.33 732.15 247.7)"  >
<path style="stroke: none; stroke-width: 1; stroke-dasharray: none; stroke-linecap: butt; stroke-dashoffset: 0; stroke-linejoin: miter; stroke-miterlimit: 4; fill: rgb(0,0,0); fill-rule: nonzero; opacity: 1;" vector-effect="non-scaling-stroke"  transform=" translate(-529.37, -131.25)" d="M 463.75 105 C 463.75 119.438 475.562 131.25 490 131.25 C 492.1875 131.25 494.2891 130.89844 496.3867 130.375 L 517.7387 162.313 C 519.4028 164.76219999999998 522.1137 166.2505 525.0004 166.2505 L 544.0744 166.2505 C 547.6603 176.39849999999998 557.2854 183.7505 568.7504 183.7505 C 583.1884 183.7505 595.0004 171.93849999999998 595.0004 157.5005 C 595.0004 143.0625 583.1884 131.2505 568.7504 131.2505 C 557.3754 131.2505 547.7504 138.60209999999998 544.0744 148.7505 L 529.6364 148.7505 L 510.9094 120.66449999999999 C 514.2336 116.28949999999999 516.2453 110.8637 516.2453 105.00049999999999 C 516.2453 90.56249999999999 504.43330000000003 78.75049999999999 489.99530000000004 78.75049999999999 C 475.55730000000005 78.75049999999999 463.74530000000004 90.56249999999999 463.74530000000004 105.00049999999999 z M 568.75 148.75 C 573.5625 148.75 577.5 152.6875 577.5 157.5 C 577.5 162.3125 573.5625 166.25 568.75 166.25 C 563.9375 166.25 560 162.3125 560 157.5 C 560 152.6875 563.9375 148.75 568.75 148.75 z M 498.75 105 C 498.75 109.8125 494.8125 113.75 490 113.75 C 485.1875 113.75 481.25 109.8125 481.25 105 C 481.25 100.1875 485.1875 96.25 490 96.25 C 494.8125 96.25 498.75 100.1875 498.75 105 z" stroke-linecap="round" />
</g>
<g transform="matrix(1.33 0 0 1.33 708.77 515.92)"  >
<path style="stroke: none; stroke-width: 1; stroke-dasharray: none; stroke-linecap: butt; stroke-dashoffset: 0; stroke-linejoin: miter; stroke-miterlimit: 4; fill: rgb(0,0,0); fill-rule: nonzero; opacity: 1;" vector-effect="non-scaling-stroke"  transform=" translate(-511.92, -332.5)" d="M 586.25 245 C 571.812 245 560 256.812 560 271.25 C 560 275.2734 560.96094 279.0391 562.625 282.539 L 512.664 332.5 L 437.5 332.5 C 432.6875 332.5 428.75 336.4375 428.75 341.25 L 428.75 369.074 C 418.602 372.6599 411.25 382.285 411.25 393.75 C 411.25 408.188 423.062 420 437.5 420 C 451.938 420 463.75 408.188 463.75 393.75 C 463.75 382.375 456.3984 372.75 446.25 369.074 L 446.25 350 L 516.25 350 C 518.6133 350 520.8008 349.03906 522.4609 347.4609 L 575.0469 294.87489999999997 C 578.461 296.539 582.2227 297.49989999999997 586.3359 297.49989999999997 C 600.7739 297.49989999999997 612.5859 285.68789999999996 612.5859 271.24989999999997 C 612.5859 256.8119 600.7739 244.99989999999997 586.3359 244.99989999999997 z M 437.5 402.5 C 432.6875 402.5 428.75 398.5625 428.75 393.75 C 428.75 388.9375 432.6875 385 437.5 385 C 442.3125 385 446.25 388.9375 446.25 393.75 C 446.25 398.5625 442.3125 402.5 437.5 402.5 z M 586.25 280 C 583.8867 280 581.6992 279.03906 580.125 277.4609 L 580.125 277.374962 C 580.125 277.289024 580.125 277.374962 580.039062 277.374962 C 578.4648619999999 275.80076199999996 577.499962 273.699162 577.499962 271.249962 C 577.499962 266.437462 581.437462 262.499962 586.249962 262.499962 C 591.062462 262.499962 594.999962 266.437462 594.999962 271.249962 C 594.999962 276.062462 591.062462 279.999962 586.249962 279.999962 z" stroke-linecap="round" />
</g>
<g transform="matrix(1.33 0 0 1.33 527.67 328.9)"  >
<path style="stroke: none; stroke-width: 1; stroke-dasharray: none; stroke-linecap: butt; stroke-dashoffset: 0; stroke-linejoin: miter; stroke-miterlimit: 4; fill: rgb(0,0,0); fill-rule: nonzero; opacity: 1;" vector-effect="non-scaling-stroke"  transform=" translate(-376.26, -192.5)" d="M 306.25 50.926 L 306.25 78.75 C 306.25 81.4609 307.5625 84.0859 309.75 85.75 L 341.25 109.375 L 341.25 166.25 L 323.75 166.25 L 323.75 131.25 C 323.75 126.4375 319.8125 122.5 315 122.5 L 287.176 122.5 C 283.5901 112.352 273.965 105 262.5 105 C 248.062 105 236.25 116.812 236.25 131.25 C 236.25 145.688 248.062 157.5 262.5 157.5 C 273.875 157.5 283.5 150.1484 287.176 140 L 306.25 140 L 306.25 166.25 L 297.5 166.25 C 283.062 166.25 271.25 178.062 271.25 192.5 L 271.25 201.25 L 236.25 201.25 C 231.4375 201.25 227.5 205.1875 227.5 210 C 227.5 214.8125 231.4375 218.75 236.25 218.75 L 271.25 218.75 L 271.25 236.25 L 218.75 236.25 C 213.9375 236.25 210 240.1875 210 245 C 210 249.8125 213.9375 253.75 218.75 253.75 L 271.25 253.75 L 271.25 271.25 L 253.75 271.25 C 248.9375 271.25 245 275.1875 245 280 C 245 284.8125 248.9375 288.75 253.75 288.75 L 271.25 288.75 L 271.25 297.5 C 271.25 311.938 283.062 323.75 297.5 323.75 L 306.25 323.75 L 306.25 358.75 C 306.25 363.5625 310.1875 367.5 315 367.5 C 319.8125 367.5 323.75 363.5625 323.75 358.75 L 323.75 323.75 L 341.25 323.75 L 341.25 376.25 C 341.25 381.0625 345.1875 385 350 385 C 354.8125 385 358.75 381.0625 358.75 376.25 L 358.75 323.75 L 376.25 323.75 L 376.25 341.25 C 376.25 346.0625 380.1875 350 385 350 C 389.8125 350 393.75 346.0625 393.75 341.25 L 393.75 323.75 L 402.5 323.75 C 416.938 323.75 428.75 311.938 428.75 297.5 L 456.574 297.5 C 460.1599 307.648 469.785 315 481.25 315 C 495.688 315 507.5 303.188 507.5 288.75 C 507.5 287.1758 507.32422 285.6016 507.0625 284.1133 L 539.9605 251.21529999999998 C 543.3746 247.8012 543.3746 242.28949999999998 539.9605 238.87929999999997 C 536.5464000000001 235.46519999999998 531.0347 235.46519999999998 527.6245 238.87929999999997 L 497.8745 268.62929999999994 C 493.32370000000003 264.8675999999999 487.6365 262.5901999999999 481.3355 262.5901999999999 C 469.9605 262.5901999999999 460.3355 269.94179999999994 456.65950000000004 280.0901999999999 L 428.8355 280.0901999999999 L 428.8355 210.09019999999992 L 465.40950000000004 210.09019999999992 C 468.9954 220.23819999999992 478.62050000000005 227.59019999999992 490.0855 227.59019999999992 C 504.5235 227.59019999999992 516.3355 215.7781999999999 516.3355 201.34019999999992 C 516.3355 186.90219999999994 504.5235 175.09019999999992 490.0855 175.09019999999992 C 478.7105 175.09019999999992 469.0855 182.44179999999992 465.40950000000004 192.59019999999992 L 428.8355 192.59019999999992 C 428.8355 181.21519999999992 421.4839 171.59019999999992 411.3355 167.91419999999994 L 411.3355 147.17619999999994 C 421.48350000000005 143.59029999999993 428.8355 133.96519999999992 428.8355 122.50019999999994 C 428.8355 111.03919999999994 421.4839 101.50019999999994 411.3355 97.82419999999993 L 411.3355 91.08589999999994 L 452.54650000000004 49.87489999999994 C 455.96060000000006 51.53899999999994 459.7223 52.49989999999994 463.8355 52.49989999999994 C 478.2735 52.49989999999994 490.0855 40.68789999999994 490.0855 26.24989999999994 C 490.0855 11.811899999999937 478.2735 -0.00010000000006016307 463.8355 -0.00010000000006016307 C 449.39750000000004 -0.00010000000006016307 437.5855 11.81189999999994 437.5855 26.24989999999994 C 437.5855 30.27329999999994 438.54644 34.03899999999994 440.2105 37.53889999999994 L 396.3745 81.37489999999994 C 394.7104 83.03899999999994 393.8354 85.22649999999994 393.8354 87.58579999999994 L 393.8354 97.90979999999993 C 383.68739999999997 101.49569999999993 376.3354 111.12079999999993 376.3354 122.58579999999994 C 376.3354 134.04679999999993 383.687 143.58579999999995 393.8354 147.26179999999994 L 393.8354 166.33579999999995 L 358.8354 166.33579999999995 L 358.8354 105.08579999999995 C 358.8354 102.37489999999995 357.5229 99.74989999999995 355.3354 98.08579999999995 L 323.8354 74.46079999999995 L 323.8354 51.01179999999995 C 333.9834 47.42589999999995 341.3354 37.80079999999995 341.3354 26.335799999999953 C 341.3354 11.897799999999952 329.5234 0.0857999999999528 315.0854 0.0857999999999528 C 300.6474 0.0857999999999528 288.8354 11.898799999999953 288.8354 26.335799999999953 C 288.8354 37.71079999999995 296.187 47.33579999999995 306.3354 51.01179999999995 z M 262.5 140 C 257.6875 140 253.75 136.0625 253.75 131.25 C 253.75 126.4375 257.6875 122.5 262.5 122.5 C 267.3125 122.5 271.25 126.4375 271.25 131.25 C 271.25 136.0625 267.3125 140 262.5 140 z M 481.25 280 C 486.0625 280 490 283.9375 490 288.75 C 490 293.5625 486.0625 297.5 481.25 297.5 C 476.4375 297.5 472.5 293.5625 472.5 288.75 C 472.5 283.9375 476.4375 280 481.25 280 z M 490 192.5 C 494.8125 192.5 498.75 196.4375 498.75 201.25 C 498.75 206.0625 494.8125 210 490 210 C 485.1875 210 481.25 206.0625 481.25 201.25 C 481.25 196.4375 485.1875 192.5 490 192.5 z M 463.75 17.5 C 468.5625 17.5 472.5 21.4375 472.5 26.25 C 472.5 31.0625 468.5625 35 463.75 35 C 461.3867 35 459.1992 34.03906 457.625 32.4609 L 457.625 32.374962000000004 C 457.625 32.289024000000005 457.625 32.374962000000004 457.539062 32.374962000000004 C 455.964862 30.800762000000002 454.999962 28.699162000000005 454.999962 26.249962000000004 C 454.999962 21.437462000000004 458.937462 17.499962000000004 463.749962 17.499962000000004 z M 411.25 297.5 C 411.25 302.3125 407.3125 306.25 402.5 306.25 L 297.5 306.25 C 292.6875 306.25 288.75 302.3125 288.75 297.5 L 288.75 192.5 C 288.75 187.6875 292.6875 183.75 297.5 183.75 L 402.5 183.75 C 407.3125 183.75 411.25 187.6875 411.25 192.5 z M 402.5 113.75 C 407.3125 113.75 411.25 117.6875 411.25 122.5 C 411.25 127.3125 407.3125 131.25 402.5 131.25 C 397.6875 131.25 393.75 127.3125 393.75 122.5 C 393.75 117.6875 397.6875 113.75 402.5 113.75 z M 315 17.5 C 319.8125 17.5 323.75 21.4375 323.75 26.25 C 323.75 31.0625 319.8125 35 315 35 C 310.1875 35 306.25 31.0625 306.25 26.25 C 306.25 21.4375 310.1875 17.5 315 17.5 z" stroke-linecap="round" />
</g>
</svg>