<?xml version="1.0" encoding="UTF-8" standalone="no" ?>
<!DOCTYPE svg PUBLIC "-//W3C//DTD SVG 1.1//EN" "http://www.w3.org/Graphics/SVG/1.1/DTD/svg11.dtd">
<svg xmlns="http://www.w3.org/2000/svg" xmlns:xlink="http://www.w3.org/1999/xlink" version="1.1" width="1080" height="1080" viewBox="0 0 1080 1080" xml:space="preserve">
<desc>Created with Fabric.js 5.2.4</desc>
<defs>
</defs>
<g transform="matrix(1 0 0 1 540 540)" id="5b374b13-2cc9-4fa0-bd86-050201249b33"  >
</g>
<g transform="matrix(1 0 0 1 540 540)" id="c3ba93e8-3093-44bf-91be-fe42c5109245"  >
<rect style="stroke: none; stroke-width: 1; stroke-dasharray: none; stroke-linecap: butt; stroke-dashoffset: 0; stroke-linejoin: miter; stroke-miterlimit: 4; fill: rgb(255,255,255); fill-rule: nonzero; opacity: 1; visibility: hidden;" vector-effect="non-scaling-stroke"  x="-540" y="-540" rx="0" ry="0" width="1080" height="1080" />
</g>
<g transform="matrix(1.33 0 0 1.33 555.11 496.84)"  >
<path style="stroke: none; stroke-width: 1; stroke-dasharray: none; stroke-linecap: butt; stroke-dashoffset: 0; stroke-linejoin: miter; stroke-miterlimit: 4; fill: rgb(0,0,0); fill-rule: nonzero; opacity: 1;" vector-effect="non-scaling-stroke"  transform=" translate(-349.45, -279.45)" d="M 604.84 101.83 C 604.84 85.268 598.2619000000001 69.381 586.547 57.67 C 574.836 45.955 558.9490000000001 39.377 542.3870000000001 39.377 L 156.50700000000006 39.377 C 139.94500000000005 39.377 124.05800000000006 45.9551 112.34700000000007 57.67 C 100.63200000000006 69.381 94.05400000000006 85.268 94.05400000000006 101.83 L 94.05400000000006 457.08 C 94.05400000000006 473.642 100.63210000000007 489.529 112.34700000000007 501.24 C 124.05800000000006 512.955 139.94500000000005 519.533 156.50700000000006 519.533 L 542.397 519.533 C 558.9590000000001 519.529094 574.8380000000001 512.9471 586.5490000000001 501.236 C 598.2600000000001 489.525 604.8380000000001 473.642 604.8380000000001 457.08 z M 543 498.75 L 156.99 498.75 C 146.13500000000002 498.652344 135.752 494.3008 128.07600000000002 486.629 C 120.39630000000002 478.9571 116.03700000000002 468.57800000000003 115.93100000000003 457.723 L 115.93100000000003 197.973 L 584.051 197.973 L 584.051 457.723 C 583.9455300000001 468.57800000000003 579.5862000000001 478.957 571.9060000000001 486.629 C 564.2302000000001 494.3009 553.8470000000001 498.65200000000004 542.9920000000001 498.75 z M 156.99 61.25 L 543 61.25 C 553.855 61.347656 564.238 65.6992 571.914 73.371 C 579.5937 81.04289999999999 583.953 91.422 584.059 102.27699999999999 L 584.059 176.093 L 115.93899999999996 176.093 L 115.93899999999996 102.27699999999999 C 116.04446999999996 91.42199999999998 120.40379999999996 81.04299999999998 128.08399999999997 73.37099999999998 C 135.75979999999998 65.69909999999999 146.14299999999997 61.347999999999985 156.998 61.24999999999998 z" stroke-linecap="round" />
</g>
<g transform="matrix(1.33 0 0 1.33 410.74 283.14)"  >
<path style="stroke: none; stroke-width: 1; stroke-dasharray: none; stroke-linecap: butt; stroke-dashoffset: 0; stroke-linejoin: miter; stroke-miterlimit: 4; fill: rgb(0,0,0); fill-rule: nonzero; opacity: 1;" vector-effect="non-scaling-stroke"  transform=" translate(-240.62, -118.66)" d="M 240.62 153.44 C 249.8427 153.44 258.69 149.7759 265.214 143.252 C 271.738 136.7281 275.402 127.885 275.402 118.65800000000002 C 275.402 109.43530000000001 271.73789999999997 100.58800000000002 265.214 94.06400000000002 C 258.69010000000003 87.54000000000002 249.843 83.87600000000002 240.62 83.87600000000002 C 231.39700000000002 83.87600000000002 222.55 87.54010000000002 216.026 94.06400000000002 C 209.502 100.58790000000002 205.83800000000002 109.43500000000002 205.83800000000002 118.65800000000002 C 205.84581200000002 127.88070000000002 209.51380000000003 136.72000000000003 216.03700000000003 143.24 C 222.55650000000003 149.76340000000002 231.39600000000004 153.431 240.61900000000003 153.43900000000002 z M 240.62 105.75999999999999 C 245.8388 105.75999999999999 250.5458 108.90449999999998 252.542 113.72479999999999 C 254.542 118.54899999999999 253.43653 124.09979999999999 249.7451 127.79079999999999 C 246.05370000000002 131.48219999999998 240.5029 132.58769999999998 235.6831 130.58769999999998 C 230.8589 128.59159999999997 227.7143 123.88459999999998 227.7143 118.66569999999999 C 227.722112 111.54069999999999 233.49550000000002 105.76369999999999 240.62030000000001 105.75969999999998 z" stroke-linecap="round" />
</g>
<g transform="matrix(1.33 0 0 1.33 511.13 283.14)"  >
<path style="stroke: none; stroke-width: 1; stroke-dasharray: none; stroke-linecap: butt; stroke-dashoffset: 0; stroke-linejoin: miter; stroke-miterlimit: 4; fill: rgb(0,0,0); fill-rule: nonzero; opacity: 1;" vector-effect="non-scaling-stroke"  transform=" translate(-315.91, -118.66)" d="M 315.91 153.44 C 325.13660000000004 153.44 333.98400000000004 149.7759 340.504 143.252 C 347.0274 136.7286 350.692 127.885 350.692 118.65800000000002 C 350.692 109.43530000000001 347.0279 100.58800000000002 340.504 94.06400000000002 C 333.9845 87.54060000000003 325.137 83.87600000000002 315.91 83.87600000000002 C 306.68730000000005 83.87600000000002 297.84000000000003 87.54010000000002 291.31600000000003 94.06400000000002 C 284.79260000000005 100.58740000000002 281.12800000000004 109.43500000000002 281.12800000000004 118.65800000000002 C 281.13971900000007 127.88070000000002 284.80770000000007 136.72000000000003 291.32700000000006 143.24 C 297.84650000000005 149.76340000000002 306.69000000000005 153.431 315.90900000000005 153.43900000000002 z M 315.91 105.75999999999999 C 321.1327 105.75999999999999 325.8358 108.90449999999998 327.836 113.72479999999999 C 329.8321 118.54899999999999 328.73053 124.09979999999999 325.0391 127.79079999999999 C 321.34770000000003 131.48219999999998 315.7969 132.58769999999998 310.97310000000004 130.58769999999998 C 306.1489 128.59159999999997 303.00430000000006 123.88459999999998 303.00430000000006 118.66569999999999 C 303.01211300000006 111.54069999999999 308.78550000000007 105.76369999999999 315.91030000000006 105.75969999999998 z" stroke-linecap="round" />
</g>
<g transform="matrix(1.33 0 0 1.33 310.36 283.14)"  >
<path style="stroke: none; stroke-width: 1; stroke-dasharray: none; stroke-linecap: butt; stroke-dashoffset: 0; stroke-linejoin: miter; stroke-miterlimit: 4; fill: rgb(0,0,0); fill-rule: nonzero; opacity: 1;" vector-effect="non-scaling-stroke"  transform=" translate(-165.33, -118.66)" d="M 165.33 153.44 C 174.55270000000002 153.44 183.4 149.7759 189.924 143.252 C 196.448 136.7281 200.112 127.885 200.112 118.65800000000002 C 200.112 109.43530000000001 196.4479 100.58800000000002 189.924 94.06400000000002 C 183.4001 87.54000000000002 174.553 83.87600000000002 165.33 83.87600000000002 C 156.10340000000002 83.87600000000002 147.256 87.54010000000002 140.73600000000002 94.06400000000002 C 134.2126 100.58740000000002 130.54800000000003 109.43500000000002 130.54800000000003 118.65800000000002 C 130.55581300000003 127.88070000000002 134.22380000000004 136.72000000000003 140.74300000000002 143.24 C 147.26640000000003 149.76340000000002 156.10600000000002 153.431 165.329 153.43900000000002 z M 165.33 105.75999999999999 C 170.5488 105.75999999999999 175.25580000000002 108.90449999999998 177.252 113.72479999999999 C 179.252 118.54899999999999 178.14653 124.09979999999999 174.45510000000002 127.79079999999999 C 170.76370000000003 131.48219999999998 165.21290000000002 132.58769999999998 160.3891 130.58769999999998 C 155.5688 128.59159999999997 152.42430000000002 123.88459999999998 152.42430000000002 118.66569999999999 C 152.42820600000002 111.54069999999999 158.20550000000003 105.76369999999999 165.33030000000002 105.75969999999998 z" stroke-linecap="round" />
</g>
<g transform="matrix(1.33 0 0 1.33 556.08 574.63)"  >
<path style="stroke: none; stroke-width: 1; stroke-dasharray: none; stroke-linecap: butt; stroke-dashoffset: 0; stroke-linejoin: miter; stroke-miterlimit: 4; fill: rgb(0,0,0); fill-rule: nonzero; opacity: 1;" vector-effect="non-scaling-stroke"  transform=" translate(-349.99, -337.42)" d="M 495.21 285.47 L 488.90139999999997 285.47 L 488.90139999999997 283.25910000000005 C 488.90921199999997 273.16510000000005 484.92089999999996 263.4741 477.8114 256.3061000000001 C 470.702 249.13810000000007 461.0454 245.07610000000008 450.9484 245.00110000000006 L 423.02639999999997 245.00110000000006 C 416.98339999999996 245.14954000000006 412.20239999999995 250.16520000000006 412.3384 256.20810000000006 L 412.3384 302.97010000000006 L 287.6484 302.97010000000006 L 287.6484 256.20810000000006 C 287.78512 250.16510000000005 283.0039 245.14910000000006 276.9604 245.00110000000006 L 249.0384 245.00110000000006 C 238.9444 245.07531900000006 229.2844 249.13780000000006 222.1754 256.3061000000001 C 215.066 263.4741000000001 211.07739999999998 273.1611000000001 211.0854 283.25910000000005 L 211.0854 285.47 L 204.77679999999998 285.47 C 194.8002 285.41921900000006 185.21779999999998 289.37230000000005 178.1828 296.447 C 171.1437 303.5173 167.2378 313.119 167.33479999999997 323.095 L 167.33479999999997 347.622 C 167.33479999999997 368.567 183.83079999999998 386.095 204.77579999999998 386.095 L 211.0844 386.095 L 211.0844 391.88410000000005 C 211.088306 401.9501 215.08829999999998 411.5991 222.2054 418.72010000000006 C 229.3226 425.8373000000001 238.9714 429.8371000000001 249.0374 429.84510000000006 L 276.9594 429.84510000000006 C 279.83050000000003 429.8411940000001 282.58050000000003 428.6849000000001 284.5922 426.63030000000003 C 286.59999999999997 424.57950000000005 287.7016 421.8061 287.6469 418.9311 L 287.6469 372.9701 L 412.3369 372.9701 L 412.3369 418.93510000000003 C 412.282212 421.80620000000005 413.3838 424.5796 415.39160000000004 426.6304 C 417.40330000000006 428.68510000000003 420.15330000000006 429.8413 423.0244 429.84520000000003 L 450.94640000000004 429.84520000000003 C 461.0124 429.83738800000003 470.6614 425.83740000000006 477.77840000000003 418.72020000000003 C 484.89560000000006 411.5991 488.89540000000005 401.95020000000005 488.8994 391.8842 L 488.8994 386.0951 L 495.208 386.0951 C 516.153 386.0951 532.649 368.5681 532.649 347.6181 L 532.649 323.0951 C 532.746656 313.1185 528.8404 303.5211 521.801 296.4471 C 514.7658 289.3768 505.184 285.4201 495.20700000000005 285.4701 z M 204.77999999999997 364.22 C 195.89719999999997 364.22 189.21399999999997 356.5052 189.21399999999997 347.61800000000005 L 189.21399999999997 323.095 C 189.10852999999997 318.91920000000005 190.71009999999998 314.8802 193.64759999999998 311.90700000000004 C 196.5812 308.93430000000006 200.60459999999998 307.2859 204.7806 307.34450000000004 L 211.0892 307.34450000000004 L 211.0892 364.21950000000004 z M 265.77599999999995 407.97 L 249.04199999999994 407.97 C 244.77639999999994 407.97 240.68649999999994 406.27470000000005 237.67099999999994 403.25910000000005 C 234.65539999999993 400.23960000000005 232.96009999999993 396.14970000000005 232.96399999999994 391.88410000000005 L 232.96399999999994 283.26410000000004 C 232.95228099999994 278.96720000000005 234.63199999999995 274.83830000000006 237.63979999999995 271.7721 C 240.65149999999994 268.70570000000004 244.74529999999996 266.9479 249.04179999999994 266.8815 L 265.77579999999995 266.8815 z M 287.65099999999995 351.095 L 287.65099999999995 324.845 L 412.34099999999995 324.845 L 412.34099999999995 351.095 z M 467.03099999999995 391.884 C 467.0349059999999 396.1496 465.33959999999996 400.2395 462.32399999999996 403.259 C 459.30839999999995 406.2746 455.21849999999995 407.9699 450.953 407.9699 L 434.219 407.9699 L 434.219 266.8799 L 450.953 266.8799 C 455.24989999999997 266.946306 459.3436 268.70410000000004 462.35499999999996 271.7705 C 465.36279999999994 274.8369 467.04249999999996 278.9658 467.03079999999994 283.26250000000005 z M 510.78099999999995 347.618 C 510.78099999999995 356.50079999999997 504.09739999999994 364.21999999999997 495.215 364.21999999999997 L 488.90639999999996 364.21999999999997 L 488.90639999999996 307.34499999999997 L 495.215 307.34499999999997 C 499.39079999999996 307.290312 503.4142 308.93879999999996 506.34799999999996 311.90749999999997 C 509.28549999999996 314.88019999999995 510.8871 318.9192 510.78159999999997 323.09549999999996 z" stroke-linecap="round" />
</g>
</svg>