<?xml version="1.0" encoding="UTF-8" standalone="no" ?>
<!DOCTYPE svg PUBLIC "-//W3C//DTD SVG 1.1//EN" "http://www.w3.org/Graphics/SVG/1.1/DTD/svg11.dtd">
<svg xmlns="http://www.w3.org/2000/svg" xmlns:xlink="http://www.w3.org/1999/xlink" version="1.1" width="1080" height="1080" viewBox="0 0 1080 1080" xml:space="preserve">
<desc>Created with Fabric.js 5.2.4</desc>
<defs>
</defs>
<g transform="matrix(1 0 0 1 540 540)" id="4b7805b3-230f-44ed-9492-0db23c6fc944"  >
<rect style="stroke: none; stroke-width: 1; stroke-dasharray: none; stroke-linecap: butt; stroke-dashoffset: 0; stroke-linejoin: miter; stroke-miterlimit: 4; fill: rgb(255,255,255); fill-rule: nonzero; opacity: 1; visibility: hidden;" vector-effect="non-scaling-stroke"  x="-540" y="-540" rx="0" ry="0" width="1080" height="1080" />
</g>
<g transform="matrix(1 0 0 1 540 540)" id="cf1bd308-3a89-4e1f-8982-5265d94185d2"  >
</g>
<g transform="matrix(1.33 0 0 1.33 357.06 644.23)"  >
<path style="stroke: none; stroke-width: 1; stroke-dasharray: none; stroke-linecap: butt; stroke-dashoffset: 0; stroke-linejoin: miter; stroke-miterlimit: 4; fill: rgb(0,0,0); fill-rule: nonzero; opacity: 1;" vector-effect="non-scaling-stroke"  transform=" translate(-183.12, -446.6)" d="M 171.92 391.44 L 194.31799999999998 391.44 L 194.31799999999998 501.76 L 171.92 501.76 z" stroke-linecap="round" />
</g>
<g transform="matrix(1.33 0 0 1.33 763.25 644.23)"  >
<path style="stroke: none; stroke-width: 1; stroke-dasharray: none; stroke-linecap: butt; stroke-dashoffset: 0; stroke-linejoin: miter; stroke-miterlimit: 4; fill: rgb(0,0,0); fill-rule: nonzero; opacity: 1;" vector-effect="non-scaling-stroke"  transform=" translate(-487.76, -446.6)" d="M 476.56 391.44 L 498.958 391.44 L 498.958 501.76 L 476.56 501.76 z" stroke-linecap="round" />
</g>
<g transform="matrix(1.33 0 0 1.33 548.21 552.02)"  >
<path style="stroke: none; stroke-width: 1; stroke-dasharray: none; stroke-linecap: butt; stroke-dashoffset: 0; stroke-linejoin: miter; stroke-miterlimit: 4; fill: rgb(0,0,0); fill-rule: nonzero; opacity: 1;" vector-effect="non-scaling-stroke"  transform=" translate(-326.48, -377.44)" d="M 128.8 369.6 L 524.1600000000001 369.6 L 524.1600000000001 385.28000000000003 L 128.80000000000007 385.28000000000003 z" stroke-linecap="round" />
</g>
<g transform="matrix(1.33 0 0 1.33 396.64 469.14)"  >
<path style="stroke: none; stroke-width: 1; stroke-dasharray: none; stroke-linecap: butt; stroke-dashoffset: 0; stroke-linejoin: miter; stroke-miterlimit: 4; fill: rgb(0,0,0); fill-rule: nonzero; opacity: 1;" vector-effect="non-scaling-stroke"  transform=" translate(-212.8, -315.28)" d="M 212.8 268.8 C 238.562 268.8 259.28000000000003 289.519 259.28000000000003 315.28000000000003 C 259.28000000000003 341.04100000000005 238.56100000000004 361.76000000000005 212.80000000000004 361.76000000000005 C 187.03900000000004 361.76000000000005 166.32000000000005 341.04100000000005 166.32000000000005 315.28000000000003 C 166.32000000000005 289.519 187.60100000000006 268.8 212.80000000000004 268.8 z" stroke-linecap="round" />
</g>
<g transform="matrix(1.33 0 0 1.33 520.39 449.03)"  >
<path style="stroke: none; stroke-width: 1; stroke-dasharray: none; stroke-linecap: butt; stroke-dashoffset: 0; stroke-linejoin: miter; stroke-miterlimit: 4; fill: rgb(0,0,0); fill-rule: nonzero; opacity: 1;" vector-effect="non-scaling-stroke"  transform=" translate(-305.61, -300.2)" d="M 325.92 302.4 C 328.1583 333.20099999999996 329.8419 338.24 323.11920000000003 345.52099999999996 C 316.95900000000006 352.23979999999995 310.2402 351.1226 301.27920000000006 351.1226 C 291.2012000000001 351.1226 282.79920000000004 342.7242 283.35720000000003 332.0836 L 285.5955 296.8026 L 288.9549 249.20059999999998 C 300.1539 250.88029999999998 311.9159 250.88029999999998 322.5569 249.20059999999998 L 325.9163 297.3606 C 325.35771 298.4817 325.35771 301.28249999999997 325.92020599999995 302.3997 z" stroke-linecap="round" />
</g>
<g transform="matrix(1.33 0 0 1.33 669.19 582.6)"  >
<path style="stroke: none; stroke-width: 1; stroke-dasharray: none; stroke-linecap: butt; stroke-dashoffset: 0; stroke-linejoin: miter; stroke-miterlimit: 4; fill: rgb(0,0,0); fill-rule: nonzero; opacity: 1;" vector-effect="non-scaling-stroke"  transform=" translate(-417.22, -400.38)" d="M 553.28 501.2 L 548.7995 501.2 C 543.1979 501.2 538.1585 496.7195 538.1585 491.122 L 533.1194 361.202 L 272.71940000000006 361.202 C 268.23890000000006 361.202 264.3210000000001 357.2801 264.3210000000001 352.8036 L 264.3210000000001 308.00260000000003 C 264.3210000000001 302.9635 268.8015000000001 299.04170000000005 273.28190000000006 299.60420000000005 L 277.20380000000006 300.16279000000003 L 274.9655000000001 331.52179 C 274.4069100000001 346.08079000000004 285.6065000000001 358.40079000000003 300.1645000000001 358.40079000000003 C 309.12540000000007 358.40079000000003 318.6445000000001 359.52189000000004 327.60550000000006 350.56099 C 337.12500000000006 340.48299000000003 334.32430000000005 332.08099 332.6446000000001 306.32299 L 550.4846000000001 328.72099000000003 C 562.2466000000002 329.84209000000004 570.6446000000001 339.91999000000004 570.0866000000001 351.68199000000004 C 570.0866000000001 355.60389000000004 569.5280100000001 360.64289 568.9655000000001 368.48299000000003 L 562.2467000000001 491.12299 C 563.3600000000001 497.28319 558.8795000000001 501.20099 553.2819000000002 501.20099 z" stroke-linecap="round" />
</g>
<g transform="matrix(1.33 0 0 1.33 520.21 250.62)"  >
<path style="stroke: none; stroke-width: 1; stroke-dasharray: none; stroke-linecap: butt; stroke-dashoffset: 0; stroke-linejoin: miter; stroke-miterlimit: 4; fill: rgb(0,0,0); fill-rule: nonzero; opacity: 1;" vector-effect="non-scaling-stroke"  transform=" translate(-305.48, -151.39)" d="M 305.2 58.801 C 254.23899999999998 58.801 212.802 100.242 212.802 151.199 C 212.802 209.437 266.56399999999996 254.23900000000003 324.802 241.918 C 367.361 232.9571 398.161 194.87900000000002 398.161 151.199 C 398.161 100.23800000000001 356.161 58.801000000000016 305.2 58.801000000000016 z M 319.762 165.20100000000002 C 311.9222 173.04080000000002 299.043 173.04080000000002 291.203 165.20100000000002 C 283.36319999999995 157.36120000000003 283.36319999999995 144.48200000000003 291.203 136.64200000000002 C 299.0428 128.80200000000002 311.92199999999997 128.80220000000003 319.762 136.64200000000002 C 327.6018 144.48180000000002 327.6018 157.36100000000002 319.762 165.20100000000002 z" stroke-linecap="round" />
</g>
</svg>